<?xml version="1.0" standalone="no"?>
<!DOCTYPE svg PUBLIC "-//W3C//DTD SVG 20010904//EN"
 "http://www.w3.org/TR/2001/REC-SVG-20010904/DTD/svg10.dtd">
<svg version="1.0" xmlns="http://www.w3.org/2000/svg"
 width="1158.000000pt" height="1158.000000pt" viewBox="0 0 1158.000000 1158.000000"
 preserveAspectRatio="xMidYMid meet">
<metadata>
Created by potrace 1.11, written by Peter Selinger 2001-2013
</metadata>
<g transform="translate(0.000000,1158.000000) scale(0.100000,-0.100000)"
fill="#000000" stroke="none">
<path d="M5449 11506 c-5 -6 -303 -26 -444 -31 -97 -4 -275 -26 -359 -45 -22
-5 -133 -23 -246 -40 -235 -35 -297 -51 -695 -170 -329 -99 -516 -171 -792
-305 -105 -51 -207 -98 -226 -104 -19 -7 -37 -17 -40 -24 -3 -7 -69 -53 -148
-102 -129 -80 -305 -217 -485 -376 l-61 -54 -16 -200 c-24 -289 -37 -656 -38
-1085 -2 -460 19 -863 66 -1285 8 -71 14 -148 14 -170 -1 -22 13 -112 30 -200
16 -88 44 -239 61 -335 18 -96 45 -233 61 -304 16 -70 29 -146 29 -168 0 -21
24 -114 54 -206 30 -92 85 -261 121 -377 210 -660 483 -1234 848 -1780 516
-775 1183 -1432 2012 -1981 207 -137 532 -334 550 -334 11 0 303 180 495 305
242 157 585 407 810 590 644 525 1193 1145 1568 1772 786 1312 1107 2983 966
5023 -8 124 -22 290 -30 370 -8 80 -19 197 -25 260 l-11 115 -71 73 c-110 113
-481 402 -515 402 -5 0 -35 16 -68 36 -65 40 -250 133 -359 181 -139 62 -416
173 -428 173 -8 0 -47 12 -88 26 -288 99 -655 191 -959 238 -359 57 -469 69
-956 105 -136 11 -616 15 -625 7z"/>
<path d="M1628 1609 l-3 -194 -665 -2 c-366 -2 -670 -5 -677 -7 -8 -3 0 -17
20 -38 18 -18 86 -92 152 -163 120 -129 279 -297 387 -406 43 -43 58 -66 58
-86 0 -29 -16 -47 -400 -436 l-165 -167 1163 0 1162 0 0 78 c0 42 3 141 7 220
l6 142 3179 0 3178 0 0 -220 0 -220 1172 0 1173 0 -293 293 c-249 249 -293
298 -290 319 2 17 101 125 315 343 172 175 310 322 307 327 -3 4 -313 8 -690
8 l-684 0 0 195 0 195 -3942 0 c-2169 0 -4061 3 -4205 7 l-263 6 -2 -194z
m8012 -1339 c0 -5 -2 -10 -4 -10 -3 0 -8 5 -11 10 -3 6 -1 10 4 10 6 0 11 -4
11 -10z"/>
</g>
</svg>
